<svg xmlns="http://www.w3.org/2000/svg" viewBox="0 0 512 512"><path fill="#FFD600" d="M480 80v352c0 26.5-21.5 48-48 48H80c-26.5 0-48-21.5-48-48V80c0-26.5 21.5-48 48-48h352c26.5 0 48 21.5 48 48zM96 96c-8.8 0-16 7.2-16 16v32c0 8.8 7.2 16 16 16s16-7.2 16-16v-32c0-8.8-7.2-16-16-16zm0 96c-8.8 0-16 7.2-16 16v32c0 8.8 7.2 16 16 16s16-7.2 16-16v-32c0-8.8-7.2-16-16-16zm0 96c-8.8 0-16 7.2-16 16v32c0 8.8 7.2 16 16 16s16-7.2 16-16v-32c0-8.8-7.2-16-16-16zm0 96c-8.8 0-16 7.2-16 16v32c0 8.8 7.2 16 16 16s16-7.2 16-16v-32c0-8.8-7.2-16-16-16zm320-288c-8.8 0-16 7.2-16 16v32c0 8.8 7.2 16 16 16s16-7.2 16-16v-32c0-8.8-7.2-16-16-16zm0 96c-8.8 0-16 7.2-16 16v32c0 8.8 7.2 16 16 16s16-7.2 16-16v-32c0-8.8-7.2-16-16-16zm0 96c-8.8 0-16 7.2-16 16v32c0 8.8 7.2 16 16 16s16-7.2 16-16v-32c0-8.8-7.2-16-16-16zm0 96c-8.8 0-16 7.2-16 16v32c0 8.8 7.2 16 16 16s16-7.2 16-16v-32c0-8.8-7.2-16-16-16z"/></svg>